<svg width="512" height="512" xmlns="http://www.w3.org/2000/svg">
 <defs>
  <radialGradient cy="0.5" cx="0.5" gradientTransform="translate(0.050000000000000044,0) scale(0.8999999999999999,1)" r="1.08543" spreadMethod="pad" id="svg_8">
   <stop offset="0" stop-opacity="0.98828" stop-color="#34d399"/>
   <stop offset="1" stop-opacity="0.98438" stop-color="#0c5439"/>
  </radialGradient>
 </defs>
 <g>
  <ellipse stroke-width="0" ry="256.1193" rx="254.49999" id="svg_1" cy="256" cx="257" stroke="#000" fill="url(#svg_8)"/>
  <path id="svg_11" d="m209.47079,454.38666c-56.10088,-21.54177 -96.31214,-89.99031 -87.17374,-148.3893c5.7624,-36.825 127.33457,-260.37844 137.95167,-253.67309c3.46528,2.18853 34.30194,54.30821 68.52591,115.82155c54.8232,98.53787 62.22537,116.91214 62.22537,154.461c0,76.10999 -59.60749,138.45271 -131.17864,137.19811c-20.88547,-0.36616 -43.54324,-2.80437 -50.35058,-5.41825l0,-0.00001zm56.20675,-38.28053c1.85696,-9.85354 -2.48081,-14.65907 -13.23233,-14.65907c-24.50383,0 -58.49462,-31.71403 -66.08868,-61.66191c-8.1008,-31.94625 -29.57963,-35.74561 -32.75217,-5.79347c-6.11233,57.70707 101.77571,136.75506 112.07316,82.11444l0.00001,0z" stroke-width="0" stroke="#000" fill="#ffffff"/>
 </g>
</svg>